<mxfile host="app.diagrams.net" agent="Mozilla/5.0 (Windows NT 10.0; Win64; x64) AppleWebKit/537.36 (KHTML, like Gecko) Chrome/131.0.0.0 Safari/537.36" version="28.0.7">
  <diagram name="第 1 页" id="ISWnEqbxdLx87qSI2oS0">
    <mxGraphModel dx="1426" dy="905" grid="1" gridSize="10" guides="1" tooltips="1" connect="1" arrows="1" fold="1" page="1" pageScale="1" pageWidth="827" pageHeight="1169" math="0" shadow="0">
      <root>
        <mxCell id="0" />
        <mxCell id="1" parent="0" />
        <mxCell id="kuIgzZYdA0XkmI6R0pej-11" value="" style="rounded=0;whiteSpace=wrap;html=1;" vertex="1" parent="1">
          <mxGeometry x="280" y="310" width="250" height="290" as="geometry" />
        </mxCell>
        <mxCell id="kuIgzZYdA0XkmI6R0pej-4" style="edgeStyle=orthogonalEdgeStyle;rounded=0;orthogonalLoop=1;jettySize=auto;html=1;exitX=0.5;exitY=0;exitDx=0;exitDy=0;entryX=0.5;entryY=1;entryDx=0;entryDy=0;" edge="1" parent="1" source="kuIgzZYdA0XkmI6R0pej-1" target="kuIgzZYdA0XkmI6R0pej-2">
          <mxGeometry relative="1" as="geometry" />
        </mxCell>
        <mxCell id="kuIgzZYdA0XkmI6R0pej-1" value="T" style="rounded=0;whiteSpace=wrap;html=1;fillColor=#fff2cc;strokeColor=#d6b656;" vertex="1" parent="1">
          <mxGeometry x="330" y="480" width="170" height="40" as="geometry" />
        </mxCell>
        <mxCell id="kuIgzZYdA0XkmI6R0pej-5" style="edgeStyle=orthogonalEdgeStyle;rounded=0;orthogonalLoop=1;jettySize=auto;html=1;exitX=0.5;exitY=0;exitDx=0;exitDy=0;entryX=0.5;entryY=1;entryDx=0;entryDy=0;" edge="1" parent="1" source="kuIgzZYdA0XkmI6R0pej-2" target="kuIgzZYdA0XkmI6R0pej-3">
          <mxGeometry relative="1" as="geometry" />
        </mxCell>
        <mxCell id="kuIgzZYdA0XkmI6R0pej-2" value="G" style="rounded=0;whiteSpace=wrap;html=1;fillColor=#fff2cc;strokeColor=#d6b656;" vertex="1" parent="1">
          <mxGeometry x="330" y="420" width="170" height="40" as="geometry" />
        </mxCell>
        <mxCell id="kuIgzZYdA0XkmI6R0pej-3" value="Fully connect" style="rounded=0;whiteSpace=wrap;html=1;fillColor=#fff2cc;strokeColor=#d6b656;" vertex="1" parent="1">
          <mxGeometry x="330" y="360" width="170" height="40" as="geometry" />
        </mxCell>
        <mxCell id="kuIgzZYdA0XkmI6R0pej-6" value="" style="endArrow=classic;html=1;rounded=0;" edge="1" parent="1">
          <mxGeometry width="50" height="50" relative="1" as="geometry">
            <mxPoint x="414" y="590" as="sourcePoint" />
            <mxPoint x="414" y="520" as="targetPoint" />
          </mxGeometry>
        </mxCell>
        <mxCell id="kuIgzZYdA0XkmI6R0pej-7" value="" style="endArrow=none;html=1;rounded=0;" edge="1" parent="1">
          <mxGeometry width="50" height="50" relative="1" as="geometry">
            <mxPoint x="414" y="550" as="sourcePoint" />
            <mxPoint x="304" y="550" as="targetPoint" />
          </mxGeometry>
        </mxCell>
        <mxCell id="kuIgzZYdA0XkmI6R0pej-8" value="" style="endArrow=none;html=1;rounded=0;" edge="1" parent="1">
          <mxGeometry width="50" height="50" relative="1" as="geometry">
            <mxPoint x="303" y="551" as="sourcePoint" />
            <mxPoint x="303" y="410" as="targetPoint" />
          </mxGeometry>
        </mxCell>
        <mxCell id="kuIgzZYdA0XkmI6R0pej-9" value="" style="endArrow=none;html=1;rounded=0;" edge="1" parent="1">
          <mxGeometry width="50" height="50" relative="1" as="geometry">
            <mxPoint x="304" y="410" as="sourcePoint" />
            <mxPoint x="414" y="410" as="targetPoint" />
          </mxGeometry>
        </mxCell>
        <mxCell id="kuIgzZYdA0XkmI6R0pej-10" value="N ×" style="text;html=1;align=center;verticalAlign=middle;whiteSpace=wrap;rounded=0;" vertex="1" parent="1">
          <mxGeometry x="210" y="440" width="60" height="30" as="geometry" />
        </mxCell>
        <mxCell id="kuIgzZYdA0XkmI6R0pej-14" value="" style="endArrow=classic;html=1;rounded=0;" edge="1" parent="1">
          <mxGeometry width="50" height="50" relative="1" as="geometry">
            <mxPoint x="416" y="360" as="sourcePoint" />
            <mxPoint x="416" y="320" as="targetPoint" />
          </mxGeometry>
        </mxCell>
      </root>
    </mxGraphModel>
  </diagram>
</mxfile>
